<svg width="880" height="193" viewBox="0 0 880 193" fill="none" xmlns="http://www.w3.org/2000/svg">
<path d="M133.56 128L169.784 38.016H183.992L220.088 128H201.528L173.624 54.144H180.024L151.736 128H133.56ZM152.76 111.232V96.64H201.144V111.232H152.76ZM264.228 129.28C259.791 129.28 255.78 128.341 252.196 126.464C248.612 124.587 245.753 122.027 243.62 118.784C241.487 115.541 240.335 111.915 240.164 107.904V85.888C240.335 81.8773 241.487 78.2933 243.62 75.136C245.839 71.8933 248.74 69.376 252.324 67.584C255.908 65.792 259.876 64.896 264.228 64.896C269.945 64.896 275.065 66.304 279.588 69.12C284.111 71.936 287.652 75.776 290.212 80.64C292.857 85.504 294.18 91.008 294.18 97.152C294.18 103.211 292.857 108.672 290.212 113.536C287.652 118.4 284.111 122.24 279.588 125.056C275.065 127.872 269.945 129.28 264.228 129.28ZM229.924 128V35.456H246.692V81.408L243.876 96.256L246.564 111.36V128H229.924ZM261.412 113.792C264.484 113.792 267.172 113.109 269.476 111.744C271.865 110.293 273.7 108.331 274.98 105.856C276.345 103.296 277.028 100.352 277.028 97.024C277.028 93.7813 276.345 90.9227 274.98 88.448C273.7 85.888 271.865 83.9253 269.476 82.56C267.087 81.1093 264.356 80.384 261.284 80.384C258.212 80.384 255.481 81.1093 253.092 82.56C250.788 83.9253 248.953 85.888 247.588 88.448C246.308 90.9227 245.668 93.7813 245.668 97.024C245.668 100.352 246.308 103.296 247.588 105.856C248.953 108.331 250.831 110.293 253.22 111.744C255.609 113.109 258.34 113.792 261.412 113.792ZM331.286 129.28C325.569 129.28 320.449 127.872 315.926 125.056C311.403 122.24 307.819 118.4 305.174 113.536C302.614 108.672 301.334 103.211 301.334 97.152C301.334 91.008 302.614 85.504 305.174 80.64C307.819 75.776 311.361 71.936 315.798 69.12C320.321 66.304 325.483 64.896 331.286 64.896C335.723 64.896 339.691 65.792 343.19 67.584C346.774 69.376 349.633 71.8933 351.766 75.136C353.985 78.2933 355.179 81.8773 355.35 85.888V107.904C355.179 111.915 354.027 115.541 351.894 118.784C349.761 122.027 346.902 124.587 343.318 126.464C339.734 128.341 335.723 129.28 331.286 129.28ZM334.102 113.792C337.259 113.792 339.99 113.109 342.294 111.744C344.683 110.293 346.518 108.331 347.798 105.856C349.163 103.296 349.846 100.352 349.846 97.024C349.846 93.7813 349.163 90.9227 347.798 88.448C346.518 85.888 344.683 83.9253 342.294 82.56C339.99 81.1093 337.302 80.384 334.23 80.384C331.073 80.384 328.299 81.1093 325.91 82.56C323.606 84.0107 321.771 85.9733 320.406 88.448C319.126 90.9227 318.486 93.7813 318.486 97.024C318.486 100.352 319.126 103.296 320.406 105.856C321.771 108.331 323.649 110.293 326.038 111.744C328.427 113.109 331.115 113.792 334.102 113.792ZM365.59 128H348.95V111.36L351.638 96.256L348.822 81.408V35.456H365.59V128ZM406.792 129.28C401.331 129.28 396.467 128.128 392.2 125.824C388.019 123.52 384.733 120.32 382.344 116.224C379.955 112.128 378.76 107.392 378.76 102.016V66.176H395.656V101.632C395.656 104.192 396.083 106.411 396.936 108.288C397.789 110.08 399.069 111.445 400.776 112.384C402.483 113.323 404.488 113.792 406.792 113.792C410.291 113.792 413.021 112.725 414.984 110.592C416.947 108.459 417.928 105.472 417.928 101.632V66.176H434.696V102.016C434.696 107.477 433.501 112.256 431.112 116.352C428.808 120.448 425.523 123.648 421.256 125.952C417.075 128.171 412.253 129.28 406.792 129.28ZM448.049 128V35.456H464.817V128H448.049ZM505.53 129.28C499.898 129.28 494.821 127.872 490.298 125.056C485.775 122.24 482.234 118.4 479.674 113.536C477.114 108.672 475.834 103.211 475.834 97.152C475.834 91.008 477.114 85.504 479.674 80.64C482.234 75.776 485.775 71.936 490.298 69.12C494.821 66.304 499.898 64.896 505.53 64.896C509.967 64.896 513.935 65.792 517.434 67.584C520.933 69.376 523.706 71.8933 525.754 75.136C527.887 78.2933 529.039 81.8773 529.21 85.888V108.16C529.039 112.256 527.887 115.883 525.754 119.04C523.706 122.197 520.933 124.715 517.434 126.592C513.935 128.384 509.967 129.28 505.53 129.28ZM508.602 113.792C513.295 113.792 517.093 112.256 519.994 109.184C522.895 106.027 524.346 101.973 524.346 97.024C524.346 93.7813 523.663 90.9227 522.298 88.448C521.018 85.888 519.183 83.9253 516.794 82.56C514.49 81.1093 511.759 80.384 508.602 80.384C505.53 80.384 502.799 81.1093 500.41 82.56C498.106 83.9253 496.271 85.888 494.906 88.448C493.626 90.9227 492.986 93.7813 492.986 97.024C492.986 100.352 493.626 103.296 494.906 105.856C496.271 108.331 498.106 110.293 500.41 111.744C502.799 113.109 505.53 113.792 508.602 113.792ZM523.45 128V111.36L526.138 96.256L523.45 81.408V66.176H540.09V128H523.45ZM550.572 118.4L583.34 75.776H603.564L570.796 118.4H550.572ZM550.572 128V118.4L563.884 113.408H602.796V128H550.572ZM552.876 80.768V66.176H603.564V75.776L590.124 80.768H552.876ZM614.549 128V66.176H631.445V128H614.549ZM622.997 56.192C620.266 56.192 618.005 55.296 616.213 53.504C614.421 51.6267 613.525 49.3227 613.525 46.592C613.525 43.9467 614.421 41.6853 616.213 39.808C618.005 37.9307 620.266 36.992 622.997 36.992C625.813 36.992 628.074 37.9307 629.781 39.808C631.573 41.6853 632.469 43.9467 632.469 46.592C632.469 49.3227 631.573 51.6267 629.781 53.504C628.074 55.296 625.813 56.192 622.997 56.192ZM641.947 118.4L674.715 75.776H694.939L662.171 118.4H641.947ZM641.947 128V118.4L655.259 113.408H694.171V128H641.947ZM644.251 80.768V66.176H694.939V75.776L681.499 80.768H644.251Z" fill="black"/>
<path d="M717.444 129.28C714.372 129.28 711.855 128.256 709.892 126.208C707.929 124.16 706.948 121.643 706.948 118.656C706.948 115.669 707.929 113.152 709.892 111.104C711.855 109.056 714.372 108.032 717.444 108.032C720.431 108.032 722.905 109.056 724.868 111.104C726.831 113.152 727.812 115.669 727.812 118.656C727.812 121.643 726.831 124.16 724.868 126.208C722.905 128.256 720.431 129.28 717.444 129.28Z" fill="#F32B2B"/>
</svg>
