<svg width="595" height="95" viewBox="0 0 595 95" fill="none" xmlns="http://www.w3.org/2000/svg">
<path d="M0.56 93L36.784 3.016H50.992L87.088 93H68.528L40.624 19.144H47.024L18.736 93H0.56ZM19.76 76.232V61.64H68.144V76.232H19.76ZM131.228 94.28C126.791 94.28 122.78 93.3413 119.196 91.464C115.612 89.5867 112.753 87.0267 110.62 83.784C108.487 80.5413 107.335 76.9147 107.164 72.904V50.888C107.335 46.8773 108.487 43.2933 110.62 40.136C112.839 36.8933 115.74 34.376 119.324 32.584C122.908 30.792 126.876 29.896 131.228 29.896C136.945 29.896 142.065 31.304 146.588 34.12C151.111 36.936 154.652 40.776 157.212 45.64C159.857 50.504 161.18 56.008 161.18 62.152C161.18 68.2107 159.857 73.672 157.212 78.536C154.652 83.4 151.111 87.24 146.588 90.056C142.065 92.872 136.945 94.28 131.228 94.28ZM96.924 93V0.455994H113.692V46.408L110.876 61.256L113.564 76.36V93H96.924ZM128.412 78.792C131.484 78.792 134.172 78.1093 136.476 76.744C138.865 75.2933 140.7 73.3307 141.98 70.856C143.345 68.296 144.028 65.352 144.028 62.024C144.028 58.7813 143.345 55.9227 141.98 53.448C140.7 50.888 138.865 48.9253 136.476 47.56C134.087 46.1093 131.356 45.384 128.284 45.384C125.212 45.384 122.481 46.1093 120.092 47.56C117.788 48.9253 115.953 50.888 114.588 53.448C113.308 55.9227 112.668 58.7813 112.668 62.024C112.668 65.352 113.308 68.296 114.588 70.856C115.953 73.3307 117.831 75.2933 120.22 76.744C122.609 78.1093 125.34 78.792 128.412 78.792ZM198.286 94.28C192.569 94.28 187.449 92.872 182.926 90.056C178.403 87.24 174.819 83.4 172.174 78.536C169.614 73.672 168.334 68.2107 168.334 62.152C168.334 56.008 169.614 50.504 172.174 45.64C174.819 40.776 178.361 36.936 182.798 34.12C187.321 31.304 192.483 29.896 198.286 29.896C202.723 29.896 206.691 30.792 210.19 32.584C213.774 34.376 216.633 36.8933 218.766 40.136C220.985 43.2933 222.179 46.8773 222.35 50.888V72.904C222.179 76.9147 221.027 80.5413 218.894 83.784C216.761 87.0267 213.902 89.5867 210.318 91.464C206.734 93.3413 202.723 94.28 198.286 94.28ZM201.102 78.792C204.259 78.792 206.99 78.1093 209.294 76.744C211.683 75.2933 213.518 73.3307 214.798 70.856C216.163 68.296 216.846 65.352 216.846 62.024C216.846 58.7813 216.163 55.9227 214.798 53.448C213.518 50.888 211.683 48.9253 209.294 47.56C206.99 46.1093 204.302 45.384 201.23 45.384C198.073 45.384 195.299 46.1093 192.91 47.56C190.606 49.0107 188.771 50.9733 187.406 53.448C186.126 55.9227 185.486 58.7813 185.486 62.024C185.486 65.352 186.126 68.296 187.406 70.856C188.771 73.3307 190.649 75.2933 193.038 76.744C195.427 78.1093 198.115 78.792 201.102 78.792ZM232.59 93H215.95V76.36L218.638 61.256L215.822 46.408V0.455994H232.59V93ZM273.792 94.28C268.331 94.28 263.467 93.128 259.2 90.824C255.019 88.52 251.733 85.32 249.344 81.224C246.955 77.128 245.76 72.392 245.76 67.016V31.176H262.656V66.632C262.656 69.192 263.083 71.4107 263.936 73.288C264.789 75.08 266.069 76.4453 267.776 77.384C269.483 78.3227 271.488 78.792 273.792 78.792C277.291 78.792 280.021 77.7253 281.984 75.592C283.947 73.4587 284.928 70.472 284.928 66.632V31.176H301.696V67.016C301.696 72.4773 300.501 77.256 298.112 81.352C295.808 85.448 292.523 88.648 288.256 90.952C284.075 93.1707 279.253 94.28 273.792 94.28ZM315.049 93V0.455994H331.817V93H315.049ZM372.53 94.28C366.898 94.28 361.821 92.872 357.298 90.056C352.775 87.24 349.234 83.4 346.674 78.536C344.114 73.672 342.834 68.2107 342.834 62.152C342.834 56.008 344.114 50.504 346.674 45.64C349.234 40.776 352.775 36.936 357.298 34.12C361.821 31.304 366.898 29.896 372.53 29.896C376.967 29.896 380.935 30.792 384.434 32.584C387.933 34.376 390.706 36.8933 392.754 40.136C394.887 43.2933 396.039 46.8773 396.21 50.888V73.16C396.039 77.256 394.887 80.8827 392.754 84.04C390.706 87.1973 387.933 89.7147 384.434 91.592C380.935 93.384 376.967 94.28 372.53 94.28ZM375.602 78.792C380.295 78.792 384.093 77.256 386.994 74.184C389.895 71.0267 391.346 66.9733 391.346 62.024C391.346 58.7813 390.663 55.9227 389.298 53.448C388.018 50.888 386.183 48.9253 383.794 47.56C381.49 46.1093 378.759 45.384 375.602 45.384C372.53 45.384 369.799 46.1093 367.41 47.56C365.106 48.9253 363.271 50.888 361.906 53.448C360.626 55.9227 359.986 58.7813 359.986 62.024C359.986 65.352 360.626 68.296 361.906 70.856C363.271 73.3307 365.106 75.2933 367.41 76.744C369.799 78.1093 372.53 78.792 375.602 78.792ZM390.45 93V76.36L393.138 61.256L390.45 46.408V31.176H407.09V93H390.45ZM417.572 83.4L450.34 40.776H470.564L437.796 83.4H417.572ZM417.572 93V83.4L430.884 78.408H469.796V93H417.572ZM419.876 45.768V31.176H470.564V40.776L457.124 45.768H419.876ZM481.549 93V31.176H498.445V93H481.549ZM489.997 21.192C487.266 21.192 485.005 20.296 483.213 18.504C481.421 16.6267 480.525 14.3227 480.525 11.592C480.525 8.94666 481.421 6.68533 483.213 4.808C485.005 2.93066 487.266 1.992 489.997 1.992C492.813 1.992 495.074 2.93066 496.781 4.808C498.573 6.68533 499.469 8.94666 499.469 11.592C499.469 14.3227 498.573 16.6267 496.781 18.504C495.074 20.296 492.813 21.192 489.997 21.192ZM508.947 83.4L541.715 40.776H561.939L529.171 83.4H508.947ZM508.947 93V83.4L522.259 78.408H561.171V93H508.947ZM511.251 45.768V31.176H561.939V40.776L548.499 45.768H511.251Z" fill="white"/>
<path d="M584.444 94.28C581.372 94.28 578.855 93.256 576.892 91.208C574.929 89.16 573.948 86.6427 573.948 83.656C573.948 80.6693 574.929 78.152 576.892 76.104C578.855 74.056 581.372 73.032 584.444 73.032C587.431 73.032 589.905 74.056 591.868 76.104C593.831 78.152 594.812 80.6693 594.812 83.656C594.812 86.6427 593.831 89.16 591.868 91.208C589.905 93.256 587.431 94.28 584.444 94.28Z" fill="#F32B2B"/>
</svg>
